<svg width="24" height="24" viewBox="0 0 24 24" fill="none" xmlns="http://www.w3.org/2000/svg">
<path d="M20.9719 16.3172L20.0332 10.6922C19.9418 10.1508 19.4742 9.75352 18.9223 9.75352H10.316V7.50352H13.691C14.0004 7.50352 14.2535 7.25039 14.2535 6.94102V3.5625C14.2535 3.25312 14.0004 3 13.691 3H4.69102C4.38164 3 4.12852 3.25312 4.12852 3.5625V6.9375C4.12852 7.24687 4.38164 7.5 4.69102 7.5H8.06602V9.75H5.08125C4.53281 9.75 4.06172 10.1473 3.97031 10.6887L3.03164 16.3137C3.01055 16.4367 3 16.5598 3 16.6828V19.875C3 20.4973 3.50273 21 4.125 21H19.875C20.4973 21 21 20.4973 21 19.875V16.6863C21.0035 16.5633 20.993 16.4402 20.9719 16.3172ZM12.8473 11.7188C12.8473 11.4094 13.1004 11.1562 13.4098 11.1562H13.9723C14.2816 11.1562 14.5348 11.4094 14.5348 11.7188V12.2812C14.5348 12.5906 14.2816 12.8438 13.9723 12.8438H13.4098C13.1004 12.8438 12.8473 12.5906 12.8473 12.2812V11.7188ZM11.7223 13.9688H12.2848C12.5941 13.9688 12.8473 14.2219 12.8473 14.5312V15.0938C12.8473 15.4031 12.5941 15.6562 12.2848 15.6562H11.7223C11.4129 15.6562 11.1598 15.4031 11.1598 15.0938V14.5312C11.1598 14.2219 11.4129 13.9688 11.7223 13.9688ZM10.5973 11.1562C10.9066 11.1562 11.1598 11.4094 11.1598 11.7188V12.2812C11.1598 12.5906 10.9066 12.8438 10.5973 12.8438H10.0348C9.72539 12.8438 9.47227 12.5906 9.47227 12.2812V11.7188C9.47227 11.4094 9.72539 11.1562 10.0348 11.1562H10.5973ZM5.81602 5.8125V4.6875H12.566V5.8125H5.81602ZM7.22227 12.8438H6.65977C6.35039 12.8438 6.09727 12.5906 6.09727 12.2812V11.7188C6.09727 11.4094 6.35039 11.1562 6.65977 11.1562H7.22227C7.53164 11.1562 7.78477 11.4094 7.78477 11.7188V12.2812C7.78477 12.5906 7.53164 12.8438 7.22227 12.8438ZM7.78477 15.0938V14.5312C7.78477 14.2219 8.03789 13.9688 8.34727 13.9688H8.90977C9.21914 13.9688 9.47227 14.2219 9.47227 14.5312V15.0938C9.47227 15.4031 9.21914 15.6562 8.90977 15.6562H8.34727C8.03789 15.6562 7.78477 15.4031 7.78477 15.0938ZM15.3785 19.0312C15.3785 19.1859 15.252 19.3125 15.0973 19.3125H8.90977C8.75508 19.3125 8.62852 19.1859 8.62852 19.0312V18.4688C8.62852 18.3141 8.75508 18.1875 8.90977 18.1875H15.0973C15.252 18.1875 15.3785 18.3141 15.3785 18.4688V19.0312ZM16.2223 15.0938C16.2223 15.4031 15.9691 15.6562 15.6598 15.6562H15.0973C14.7879 15.6562 14.5348 15.4031 14.5348 15.0938V14.5312C14.5348 14.2219 14.7879 13.9688 15.0973 13.9688H15.6598C15.9691 13.9688 16.2223 14.2219 16.2223 14.5312V15.0938ZM17.9098 12.2812C17.9098 12.5906 17.6566 12.8438 17.3473 12.8438H16.7848C16.4754 12.8438 16.2223 12.5906 16.2223 12.2812V11.7188C16.2223 11.4094 16.4754 11.1562 16.7848 11.1562H17.3473C17.6566 11.1562 17.9098 11.4094 17.9098 11.7188V12.2812Z" fill="#A2A1B7"/>
</svg>
