<svg width="24" height="24" viewBox="0 0 24 24" fill="none" xmlns="http://www.w3.org/2000/svg">
<path d="M20.25 6H5.75C5.33578 6 5 6.33578 5 6.75V7H3.75C3.33578 7 3 7.33578 3 7.75V16.25C3 17.2165 3.7835 18 4.75 18H19.5C20.3284 18 21 17.3284 21 16.5V6.75C21 6.33578 20.6642 6 20.25 6ZM4.75 16.5C4.6837 16.5 4.62011 16.4737 4.57322 16.4268C4.52634 16.3799 4.5 16.3163 4.5 16.25V8.5H5V16.25C5 16.3163 4.97366 16.3799 4.92678 16.4268C4.87989 16.4737 4.8163 16.5 4.75 16.5ZM12.125 16H7.375C7.16791 16 7 15.8321 7 15.625V15.375C7 15.1679 7.16791 15 7.375 15H12.125C12.3321 15 12.5 15.1679 12.5 15.375V15.625C12.5 15.8321 12.3321 16 12.125 16ZM18.625 16H13.875C13.6679 16 13.5 15.8321 13.5 15.625V15.375C13.5 15.1679 13.6679 15 13.875 15H18.625C18.8321 15 19 15.1679 19 15.375V15.625C19 15.8321 18.8321 16 18.625 16ZM12.125 13H7.375C7.16791 13 7 12.8321 7 12.625V12.375C7 12.1679 7.16791 12 7.375 12H12.125C12.3321 12 12.5 12.1679 12.5 12.375V12.625C12.5 12.8321 12.3321 13 12.125 13ZM18.625 13H13.875C13.6679 13 13.5 12.8321 13.5 12.625V12.375C13.5 12.1679 13.6679 12 13.875 12H18.625C18.8321 12 19 12.1679 19 12.375V12.625C19 12.8321 18.8321 13 18.625 13ZM18.625 10H7.375C7.16791 10 7 9.83209 7 9.625V8.375C7 8.16791 7.16791 8 7.375 8H18.625C18.8321 8 19 8.16791 19 8.375V9.625C19 9.83209 18.8321 10 18.625 10Z" fill="#A2A1B7"/>
</svg>
