<svg width="24" height="24" viewBox="0 0 24 24" fill="none" xmlns="http://www.w3.org/2000/svg">
<path d="M11.7348 8.03476L5.33358 13.3069V18.9971C5.33358 19.1444 5.39211 19.2857 5.49629 19.3899C5.60047 19.4941 5.74176 19.5526 5.88909 19.5526L9.77977 19.5426C9.92662 19.5418 10.0672 19.483 10.1708 19.3789C10.2744 19.2748 10.3325 19.1339 10.3325 18.987V15.664C10.3325 15.5167 10.391 15.3754 10.4952 15.2712C10.5994 15.167 10.7407 15.1085 10.888 15.1085H13.1101C13.2574 15.1085 13.3987 15.167 13.5029 15.2712C13.6071 15.3754 13.6656 15.5167 13.6656 15.664V18.9846C13.6654 19.0577 13.6796 19.1301 13.7074 19.1977C13.7352 19.2653 13.7761 19.3268 13.8277 19.3785C13.8793 19.4303 13.9406 19.4714 14.0081 19.4994C14.0756 19.5274 14.148 19.5419 14.2211 19.5419L18.1104 19.5526C18.2577 19.5526 18.399 19.4941 18.5032 19.3899C18.6074 19.2857 18.6659 19.1444 18.6659 18.9971V13.3031L12.266 8.03476C12.1908 7.97411 12.0971 7.94104 12.0004 7.94104C11.9038 7.94104 11.8101 7.97411 11.7348 8.03476ZM21.8462 11.6182L18.9436 9.22564V4.41663C18.9436 4.30614 18.8997 4.20016 18.8216 4.12203C18.7435 4.0439 18.6375 4 18.527 4H16.5827C16.4722 4 16.3662 4.0439 16.2881 4.12203C16.21 4.20016 16.1661 4.30614 16.1661 4.41663V6.93762L13.0576 4.38018C12.7593 4.1347 12.385 4.00049 11.9987 4.00049C11.6124 4.00049 11.2381 4.1347 10.9397 4.38018L2.15119 11.6182C2.109 11.653 2.07409 11.6959 2.04847 11.7442C2.02284 11.7926 2.007 11.8455 2.00184 11.9C1.99668 11.9545 2.00231 12.0095 2.0184 12.0618C2.0345 12.1141 2.06074 12.1628 2.09564 12.2049L2.98099 13.2812C3.01579 13.3235 3.05859 13.3586 3.10695 13.3843C3.1553 13.4101 3.20827 13.426 3.2628 13.4313C3.31733 13.4366 3.37237 13.431 3.42476 13.415C3.47714 13.3989 3.52585 13.3727 3.56809 13.3378L11.7348 6.61126C11.8101 6.55061 11.9038 6.51754 12.0004 6.51754C12.0971 6.51754 12.1908 6.55061 12.266 6.61126L20.4331 13.3378C20.4753 13.3727 20.5239 13.399 20.5762 13.4151C20.6285 13.4311 20.6835 13.4368 20.738 13.4316C20.7925 13.4265 20.8454 13.4106 20.8938 13.385C20.9422 13.3594 20.985 13.3245 21.0199 13.2823L21.9052 12.206C21.9401 12.1636 21.9662 12.1147 21.9821 12.0621C21.998 12.0096 22.0034 11.9544 21.9979 11.8998C21.9924 11.8452 21.9762 11.7922 21.9502 11.7438C21.9241 11.6955 21.8888 11.6528 21.8462 11.6182Z" fill="#A2A1B7"/>
</svg>
