<svg width="24" height="24" viewBox="0 0 24 24" fill="none" xmlns="http://www.w3.org/2000/svg">
<path d="M21.4109 5.70186C20.1988 5.19343 18.9857 5 17.7732 5C13.9242 4.99969 10.0755 6.94809 6.2265 6.94809C5.2612 6.94809 4.29653 6.8256 3.33123 6.51935C3.22279 6.48498 3.11405 6.46873 3.0078 6.46873C2.46999 6.46873 2 6.88497 2 7.46277V17.377C2 17.7717 2.22593 18.1457 2.58874 18.2976C3.80091 18.8063 5.01402 18.9998 6.2265 18.9998C10.0755 18.9998 13.9245 17.0514 17.7735 17.0514C18.7388 17.0514 19.7035 17.1739 20.6688 17.4801C20.7772 17.5145 20.886 17.5307 20.9922 17.5307C21.53 17.5307 22 17.1145 22 16.5367V6.62279C21.9997 6.22779 21.7738 5.85405 21.4109 5.70186ZM3.49998 8.13183C4.12872 8.28932 4.78496 8.36838 5.45995 8.41088C5.2762 9.32931 4.46871 10.0215 3.49998 10.0215V8.13183ZM3.49998 17.0379V15.5448C4.57402 15.5448 5.44307 16.397 5.49088 17.4636C4.78683 17.407 4.12872 17.2664 3.49998 17.0379ZM11.9998 14.9998C10.6189 14.9998 9.49988 13.6564 9.49988 11.9999C9.49988 10.343 10.6192 8.99994 11.9998 8.99994C13.3804 8.99994 14.4998 10.343 14.4998 11.9999C14.4998 13.6571 13.3801 14.9998 11.9998 14.9998ZM20.4997 15.868C19.9522 15.7308 19.3838 15.6539 18.8022 15.6042C18.9857 14.7892 19.6616 14.1705 20.4997 14.0642V15.868ZM20.4997 8.48963C19.5344 8.36745 18.7854 7.56152 18.7557 6.56623C19.3663 6.63404 19.946 6.76091 20.4997 6.96184V8.48963Z" fill="#A2A1B7"/>
</svg>
