<svg width="24" height="24" viewBox="0 0 24 24" fill="none" xmlns="http://www.w3.org/2000/svg">
<path d="M20.5 13H18V16L17 15.3344L16 16V13H13.5C13.225 13 13 13.225 13 13.5V19.5C13 19.775 13.225 20 13.5 20H20.5C20.775 20 21 19.775 21 19.5V13.5C21 13.225 20.775 13 20.5 13ZM8.5 11H15.5C15.775 11 16 10.775 16 10.5V4.5C16 4.225 15.775 4 15.5 4H13V7L12 6.33437L11 7V4H8.5C8.225 4 8 4.225 8 4.5V10.5C8 10.775 8.225 11 8.5 11ZM10.5 13H8V16L7 15.3344L6 16V13H3.5C3.225 13 3 13.225 3 13.5V19.5C3 19.775 3.225 20 3.5 20H10.5C10.775 20 11 19.775 11 19.5V13.5C11 13.225 10.775 13 10.5 13Z" fill="#A2A1B7"/>
</svg>
